<svg version="1.1" id="Layer_1" xmlns="http://www.w3.org/2000/svg" xmlns:xlink="http://www.w3.org/1999/xlink" x="0px" y="0px"
	 width="100%" viewBox="0 0 350 350" enable-background="new 0 0 350 350" xml:space="preserve">
<path fill="#FDEE87" opacity="1.000000" stroke="none" 
	d="
M303.000000,1.000000 
	C318.993866,1.000000 334.987762,1.000000 350.986206,1.000000 
	C350.990814,117.615906 350.990814,234.231812 350.990814,350.923859 
	C234.428772,350.923859 117.857483,350.923859 1.143093,350.923859 
	C1.143093,234.333466 1.143093,117.666756 1.143093,1.000000 
	C16.074036,1.000000 31.068359,1.000000 46.392208,1.355443 
	C46.283279,3.955881 45.464478,6.200433 45.461857,8.445937 
	C45.392002,68.273392 45.401417,128.100937 45.412228,187.928467 
	C45.413563,195.312408 46.232002,196.074310 53.872147,196.075790 
	C81.202827,196.081131 108.534889,196.219299 135.862991,195.954102 
	C141.069321,195.903595 142.206070,197.513824 142.186310,202.461990 
	C142.003494,248.290146 142.071869,294.119324 142.087479,339.948212 
	C142.089630,346.254608 143.409912,347.567535 149.711090,347.576935 
	C166.209442,347.601593 182.707886,347.597260 199.206268,347.579742 
	C206.711578,347.571808 207.791351,346.455872 207.792099,338.815430 
	C207.796494,293.486511 207.790268,248.157562 207.807800,202.828629 
	C207.808609,200.737823 208.003387,198.647095 208.131729,196.078049 
	C210.607300,196.078049 212.575684,196.078064 214.544052,196.078033 
	C242.041382,196.077530 269.538696,196.089706 297.036041,196.066650 
	C303.083893,196.061584 304.292175,194.803894 304.424774,188.727646 
	C304.439331,188.061371 304.426849,187.394485 304.426849,186.727890 
	C304.426178,127.906898 304.446960,69.085884 304.364105,10.265011 
	C304.359741,7.176040 303.474915,4.088309 303.000000,1.000000 
z"/>
<path fill="#F63683" opacity="1.000000" stroke="none" 
	d="
M302.531342,1.000000 
	C303.474915,4.088309 304.359741,7.176040 304.364105,10.265011 
	C304.446960,69.085884 304.426178,127.906898 304.426849,186.727890 
	C304.426849,187.394485 304.439331,188.061371 304.424774,188.727646 
	C304.292175,194.803894 303.083893,196.061584 297.036041,196.066650 
	C269.538696,196.089706 242.041382,196.077530 214.544052,196.078033 
	C212.575684,196.078064 210.607300,196.078049 208.131729,196.078049 
	C208.003387,198.647095 207.808609,200.737823 207.807800,202.828629 
	C207.790268,248.157562 207.796494,293.486511 207.792099,338.815430 
	C207.791351,346.455872 206.711578,347.571808 199.206268,347.579742 
	C182.707886,347.597260 166.209442,347.601593 149.711090,347.576935 
	C143.409912,347.567535 142.089630,346.254608 142.087479,339.948212 
	C142.071869,294.119324 142.003494,248.290146 142.186310,202.461990 
	C142.206070,197.513824 141.069321,195.903595 135.862991,195.954102 
	C108.534889,196.219299 81.202827,196.081131 53.872147,196.075790 
	C46.232002,196.074310 45.413563,195.312408 45.412228,187.928467 
	C45.401417,128.100937 45.392002,68.273392 45.461857,8.445937 
	C45.464478,6.200433 46.283279,3.955881 46.860867,1.355443 
	C60.354229,1.000000 73.708458,1.000000 87.617569,1.334569 
	C93.631615,10.817311 99.090775,19.965487 105.002907,29.872742 
	C111.082245,19.545847 116.541122,10.272923 122.000000,0.999999 
	C182.020889,1.000000 242.041794,1.000000 302.531342,1.000000 
M238.499939,139.422165 
	C257.114319,139.422165 275.728699,139.422165 294.666809,139.422165 
	C294.666809,95.949593 294.666809,53.095314 294.666809,10.124352 
	C293.501434,9.967306 292.695496,9.763905 291.889496,9.763609 
	C238.244186,9.743969 184.598816,9.712605 130.953949,9.866243 
	C129.275085,9.871052 126.972946,11.405321 126.029655,12.900523 
	C120.610474,21.490335 115.514000,30.283737 110.308098,39.008110 
	C106.603027,45.217293 103.237526,45.159634 99.490776,38.844402 
	C94.391953,30.250225 89.319214,21.639874 84.120087,13.106641 
	C83.328568,11.807526 81.945724,9.973965 80.786560,9.936674 
	C72.350899,9.665300 63.902466,9.790706 55.242027,9.790706 
	C55.242027,53.233986 55.242027,96.087212 55.242027,139.423065 
	C116.270271,139.423065 176.885101,139.423065 238.499939,139.422165 
M295.057983,181.333725 
	C295.057312,172.673935 295.059357,164.014130 295.055206,155.354340 
	C295.052094,148.898102 295.048523,148.890381 288.551025,148.890182 
	C220.937729,148.888245 153.324417,148.888855 85.711121,148.889114 
	C76.718216,148.889160 67.724754,148.947403 58.732765,148.857376 
	C56.113628,148.831161 54.746368,149.470535 54.780807,152.455582 
	C54.899925,162.779358 54.877346,173.105820 54.789913,183.430237 
	C54.767677,186.056168 55.837109,186.976913 58.359257,186.887985 
	C61.685726,186.770721 65.019608,186.865967 68.350296,186.865982 
	C141.958878,186.866409 215.567444,186.862579 289.176025,186.878586 
	C292.400635,186.879288 295.907990,187.423798 295.057983,181.333725 
M151.211487,221.500000 
	C151.211655,239.819839 151.299057,258.140442 151.139099,276.458893 
	C151.106720,280.166077 152.210724,281.370270 155.966141,281.309509 
	C168.620178,281.104828 181.280151,281.163910 193.936493,281.275909 
	C197.045593,281.303375 198.415573,280.436523 198.402847,277.062012 
	C198.306152,251.414642 198.318939,225.766632 198.396439,200.119110 
	C198.405518,197.115173 197.367386,196.001373 194.340469,196.025284 
	C181.350876,196.127975 168.359116,196.150101 155.370148,196.012726 
	C151.964020,195.976715 151.102951,197.428253 151.169525,200.515732 
	C151.313126,207.174377 151.212524,213.838272 151.211487,221.500000 
M198.676514,325.483124 
	C198.675354,315.165527 198.580856,304.846619 198.727661,294.531128 
	C198.774078,291.269196 197.612915,290.155670 194.381058,290.185730 
	C181.401993,290.306549 168.420456,290.307678 155.441422,290.184479 
	C152.167633,290.153381 151.107605,291.359406 151.138702,294.575623 
	C151.265808,307.720978 151.272263,320.869171 151.134430,334.014313 
	C151.099945,337.302429 152.258286,338.350006 155.487015,338.303986 
	C165.968887,338.154510 176.454224,338.249359 186.938232,338.249634 
	C198.677078,338.249969 198.677078,338.249725 198.676514,325.483124 
z"/>
<path fill="#FDEB87" opacity="1.000000" stroke="none" 
	d="
M121.531342,0.999999 
	C116.541122,10.272923 111.082245,19.545847 105.002907,29.872742 
	C99.090775,19.965487 93.631615,10.817311 88.086227,1.334569 
	C99.020897,1.000000 110.041786,1.000000 121.531342,0.999999 
z"/>
<path fill="#FDEE87" opacity="1.000000" stroke="none" 
	d="
M237.999939,139.422607 
	C176.885101,139.423065 116.270271,139.423065 55.242027,139.423065 
	C55.242027,96.087212 55.242027,53.233986 55.242027,9.790706 
	C63.902466,9.790706 72.350899,9.665300 80.786560,9.936674 
	C81.945724,9.973965 83.328568,11.807526 84.120087,13.106641 
	C89.319214,21.639874 94.391953,30.250225 99.490776,38.844402 
	C103.237526,45.159634 106.603027,45.217293 110.308098,39.008110 
	C115.514000,30.283737 120.610474,21.490335 126.029655,12.900523 
	C126.972946,11.405321 129.275085,9.871052 130.953949,9.866243 
	C184.598816,9.712605 238.244186,9.743969 291.889496,9.763609 
	C292.695496,9.763905 293.501434,9.967306 294.666809,10.124352 
	C294.666809,53.095314 294.666809,95.949593 294.666809,139.422165 
	C275.728699,139.422165 257.114319,139.422165 237.999939,139.422607 
M77.840019,118.109039 
	C77.954674,116.289459 78.166740,114.470001 78.168991,112.650284 
	C78.193069,93.160316 78.184792,73.670311 78.183617,54.180321 
	C78.183121,46.044483 77.904854,45.828709 69.438522,47.571205 
	C69.438522,71.228401 69.438522,94.930069 69.438522,119.148697 
	C72.289223,119.009750 74.736786,118.890457 77.840019,118.109039 
M74.380722,26.169306 
	C72.642548,26.696619 69.536049,27.003059 69.408958,27.790430 
	C68.923042,30.800697 68.399658,34.617264 69.857529,36.845844 
	C70.843758,38.353455 75.121803,37.707661 78.482391,38.087803 
	C78.482391,34.346214 78.770012,31.518026 78.334045,28.806164 
	C78.170624,27.789600 76.324310,27.043581 74.380722,26.169306 
z"/>
<path fill="#FDEA87" opacity="1.000000" stroke="none" 
	d="
M295.057800,181.810394 
	C295.907990,187.423798 292.400635,186.879288 289.176025,186.878586 
	C215.567444,186.862579 141.958878,186.866409 68.350296,186.865982 
	C65.019608,186.865967 61.685726,186.770721 58.359257,186.887985 
	C55.837109,186.976913 54.767677,186.056168 54.789913,183.430237 
	C54.877346,173.105820 54.899925,162.779358 54.780807,152.455582 
	C54.746368,149.470535 56.113628,148.831161 58.732765,148.857376 
	C67.724754,148.947403 76.718216,148.889160 85.711121,148.889114 
	C153.324417,148.888855 220.937729,148.888245 288.551025,148.890182 
	C295.048523,148.890381 295.052094,148.898102 295.055206,155.354340 
	C295.059357,164.014130 295.057312,172.673935 295.057800,181.810394 
M99.725334,172.974869 
	C99.746902,169.309738 99.929955,165.634277 99.696960,161.985397 
	C99.621750,160.807541 98.699638,159.021454 97.742912,158.673294 
	C92.784157,156.868729 90.278755,158.756363 90.244568,163.954086 
	C90.235802,165.287033 90.242409,166.620087 90.243088,167.953094 
	C90.247002,175.599701 91.853638,176.619415 99.725334,172.974869 
M236.764954,162.865280 
	C236.346909,158.817383 233.296616,156.918335 229.229004,158.717834 
	C228.132431,159.202942 227.253738,161.593933 227.333603,163.052109 
	C227.547852,166.964249 226.962402,172.402954 229.208588,174.381958 
	C232.796127,177.542801 236.745743,174.421265 236.764938,169.267822 
	C236.771774,167.436417 236.765549,165.604965 236.764954,162.865280 
M113.448616,173.802231 
	C116.358788,173.784988 121.735222,174.129105 121.798859,173.694778 
	C122.458672,169.191498 122.764999,164.466110 121.913918,160.044083 
	C121.725723,159.066269 116.602203,159.038315 113.215797,158.485580 
	C113.215797,164.087967 113.215797,168.520004 113.448616,173.802231 
M250.115280,169.329102 
	C250.231140,174.925629 250.886261,175.658554 256.453949,174.640579 
	C257.679108,174.416580 259.581818,172.006241 259.382965,170.934814 
	C258.636627,166.913132 262.501862,161.378632 257.237610,159.041580 
	C252.216019,156.812256 250.140091,158.913773 250.116135,164.431656 
	C250.110397,165.752151 250.115356,167.072662 250.115280,169.329102 
M185.536255,158.802780 
	C184.317566,159.704834 182.142441,160.516357 182.047012,161.524704 
	C181.650177,165.717804 181.880173,169.970245 181.880173,174.388596 
	C185.191284,174.388596 187.866348,174.388596 190.940262,174.388596 
	C190.940262,170.378464 190.736893,166.760803 190.997879,163.176987 
	C191.255325,159.641678 189.835464,158.337036 185.536255,158.802780 
M213.837830,172.078049 
	C213.837830,167.841003 213.837830,163.603973 213.837830,159.502838 
	C205.010147,157.802307 204.725586,158.025787 204.721909,166.030472 
	C204.721298,167.349854 204.515625,168.711441 204.774414,169.977982 
	C205.100510,171.573883 205.839691,174.430191 206.343002,174.417740 
	C208.833679,174.355988 211.305359,173.527283 213.837830,172.078049 
M158.944107,171.224258 
	C159.736618,178.276062 164.581131,173.296051 167.998749,174.997070 
	C167.998749,169.861862 168.159241,165.605591 167.871246,161.379898 
	C167.809280,160.470856 166.238754,159.172806 165.167160,158.934265 
	C163.346039,158.528854 161.369263,158.822723 158.941711,158.822723 
	C158.941711,163.107788 158.941711,166.699631 158.944107,171.224258 
M276.634796,174.805008 
	C278.400269,174.327225 281.650696,173.957733 281.694672,173.354431 
	C282.026306,168.806778 282.119019,164.138229 281.270691,159.701675 
	C281.114777,158.886353 276.341858,158.953842 273.029510,158.527542 
	C273.029510,163.655258 272.869629,167.910934 273.153198,172.136841 
	C273.216156,173.075272 274.842590,173.908798 276.634796,174.805008 
M145.147720,166.501068 
	C145.140518,157.862137 144.816269,157.597565 136.360458,159.562119 
	C136.360458,164.407761 136.360458,169.300919 136.360458,174.126389 
	C144.970306,175.826035 145.139267,175.691422 145.147720,166.501068 
M76.803284,172.992645 
	C76.803284,168.428864 76.803284,163.865097 76.803284,158.809128 
	C74.390305,158.809128 72.545296,158.524612 70.852303,158.909210 
	C69.724915,159.165298 68.000809,160.320999 67.943466,161.168732 
	C67.648582,165.527664 67.806801,169.917236 67.806801,175.178131 
	C71.290428,174.648148 73.929062,174.246719 76.803284,172.992645 
z"/>
<path fill="#FDEB87" opacity="1.000000" stroke="none" 
	d="
M151.211670,221.000015 
	C151.212524,213.838272 151.313126,207.174377 151.169525,200.515732 
	C151.102951,197.428253 151.964020,195.976715 155.370148,196.012726 
	C168.359116,196.150101 181.350876,196.127975 194.340469,196.025284 
	C197.367386,196.001373 198.405518,197.115173 198.396439,200.119110 
	C198.318939,225.766632 198.306152,251.414642 198.402847,277.062012 
	C198.415573,280.436523 197.045593,281.303375 193.936493,281.275909 
	C181.280151,281.163910 168.620178,281.104828 155.966141,281.309509 
	C152.210724,281.370270 151.106720,280.166077 151.139099,276.458893 
	C151.299057,258.140442 151.211655,239.819839 151.211670,221.000015 
z"/>
<path fill="#FDE587" opacity="1.000000" stroke="none" 
	d="
M198.676193,325.978394 
	C198.677078,338.249725 198.677078,338.249969 186.938232,338.249634 
	C176.454224,338.249359 165.968887,338.154510 155.487015,338.303986 
	C152.258286,338.350006 151.099945,337.302429 151.134430,334.014313 
	C151.272263,320.869171 151.265808,307.720978 151.138702,294.575623 
	C151.107605,291.359406 152.167633,290.153381 155.441422,290.184479 
	C168.420456,290.307678 181.401993,290.306549 194.381058,290.185730 
	C197.612915,290.155670 198.774078,291.269196 198.727661,294.531128 
	C198.580856,304.846619 198.675354,315.165527 198.676193,325.978394 
M162.861572,307.646240 
	C162.347977,308.686279 161.691299,309.680969 161.344788,310.773956 
	C159.555740,316.417114 161.488785,322.929688 165.953568,326.580475 
	C170.369049,330.190948 177.033401,330.575531 182.315048,327.524597 
	C187.218903,324.691895 189.910522,318.935303 188.940689,313.037689 
	C187.937546,306.937500 184.001633,303.316864 178.337387,301.687225 
	C172.203171,299.922394 167.311951,302.411926 162.861572,307.646240 
z"/>
<path fill="#F63683" opacity="1.000000" stroke="none" 
	d="
M77.512177,118.440102 
	C74.736786,118.890457 72.289223,119.009750 69.438522,119.148697 
	C69.438522,94.930069 69.438522,71.228401 69.438522,47.571205 
	C77.904854,45.828709 78.183121,46.044483 78.183617,54.180321 
	C78.184792,73.670311 78.193069,93.160316 78.168991,112.650284 
	C78.166740,114.470001 77.954674,116.289459 77.512177,118.440102 
z"/>
<path fill="#F74183" opacity="1.000000" stroke="none" 
	d="
M74.812996,26.171761 
	C76.324310,27.043581 78.170624,27.789600 78.334045,28.806164 
	C78.770012,31.518026 78.482391,34.346214 78.482391,38.087803 
	C75.121803,37.707661 70.843758,38.353455 69.857529,36.845844 
	C68.399658,34.617264 68.923042,30.800697 69.408958,27.790430 
	C69.536049,27.003059 72.642548,26.696619 74.812996,26.171761 
z"/>
<path fill="#F74483" opacity="1.000000" stroke="none" 
	d="
M99.607346,173.398499 
	C91.853638,176.619415 90.247002,175.599701 90.243088,167.953094 
	C90.242409,166.620087 90.235802,165.287033 90.244568,163.954086 
	C90.278755,158.756363 92.784157,156.868729 97.742912,158.673294 
	C98.699638,159.021454 99.621750,160.807541 99.696960,161.985397 
	C99.929955,165.634277 99.746902,169.309738 99.607346,173.398499 
z"/>
<path fill="#F74483" opacity="1.000000" stroke="none" 
	d="
M236.765137,163.319412 
	C236.765549,165.604965 236.771774,167.436417 236.764938,169.267822 
	C236.745743,174.421265 232.796127,177.542801 229.208588,174.381958 
	C226.962402,172.402954 227.547852,166.964249 227.333603,163.052109 
	C227.253738,161.593933 228.132431,159.202942 229.229004,158.717834 
	C233.296616,156.918335 236.346909,158.817383 236.765137,163.319412 
z"/>
<path fill="#F73C83" opacity="1.000000" stroke="none" 
	d="
M113.332207,173.377136 
	C113.215797,168.520004 113.215797,164.087967 113.215797,158.485580 
	C116.602203,159.038315 121.725723,159.066269 121.913918,160.044083 
	C122.764999,164.466110 122.458672,169.191498 121.798859,173.694778 
	C121.735222,174.129105 116.358788,173.784988 113.332207,173.377136 
z"/>
<path fill="#F63B83" opacity="1.000000" stroke="none" 
	d="
M250.115326,168.861145 
	C250.115356,167.072662 250.110397,165.752151 250.116135,164.431656 
	C250.140091,158.913773 252.216019,156.812256 257.237610,159.041580 
	C262.501862,161.378632 258.636627,166.913132 259.382965,170.934814 
	C259.581818,172.006241 257.679108,174.416580 256.453949,174.640579 
	C250.886261,175.658554 250.231140,174.925629 250.115326,168.861145 
z"/>
<path fill="#F63783" opacity="1.000000" stroke="none" 
	d="
M186.001633,158.801239 
	C189.835464,158.337036 191.255325,159.641678 190.997879,163.176987 
	C190.736893,166.760803 190.940262,170.378464 190.940262,174.388596 
	C187.866348,174.388596 185.191284,174.388596 181.880173,174.388596 
	C181.880173,169.970245 181.650177,165.717804 182.047012,161.524704 
	C182.142441,160.516357 184.317566,159.704834 186.001633,158.801239 
z"/>
<path fill="#F63A83" opacity="1.000000" stroke="none" 
	d="
M213.810791,172.523499 
	C211.305359,173.527283 208.833679,174.355988 206.343002,174.417740 
	C205.839691,174.430191 205.100510,171.573883 204.774414,169.977982 
	C204.515625,168.711441 204.721298,167.349854 204.721909,166.030472 
	C204.725586,158.025787 205.010147,157.802307 213.837830,159.502838 
	C213.837830,163.603973 213.837830,167.841003 213.810791,172.523499 
z"/>
<path fill="#F63783" opacity="1.000000" stroke="none" 
	d="
M158.942902,170.757858 
	C158.941711,166.699631 158.941711,163.107788 158.941711,158.822723 
	C161.369263,158.822723 163.346039,158.528854 165.167160,158.934265 
	C166.238754,159.172806 167.809280,160.470856 167.871246,161.379898 
	C168.159241,165.605591 167.998749,169.861862 167.998749,174.997070 
	C164.581131,173.296051 159.736618,178.276062 158.942902,170.757858 
z"/>
<path fill="#F63983" opacity="1.000000" stroke="none" 
	d="
M276.191956,174.797821 
	C274.842590,173.908798 273.216156,173.075272 273.153198,172.136841 
	C272.869629,167.910934 273.029510,163.655258 273.029510,158.527542 
	C276.341858,158.953842 281.114777,158.886353 281.270691,159.701675 
	C282.119019,164.138229 282.026306,168.806778 281.694672,173.354431 
	C281.650696,173.957733 278.400269,174.327225 276.191956,174.797821 
z"/>
<path fill="#F63A83" opacity="1.000000" stroke="none" 
	d="
M145.147842,166.978165 
	C145.139267,175.691422 144.970306,175.826035 136.360458,174.126389 
	C136.360458,169.300919 136.360458,164.407761 136.360458,159.562119 
	C144.816269,157.597565 145.140518,157.862137 145.147842,166.978165 
z"/>
<path fill="#F63A83" opacity="1.000000" stroke="none" 
	d="
M76.685486,173.418976 
	C73.929062,174.246719 71.290428,174.648148 67.806801,175.178131 
	C67.806801,169.917236 67.648582,165.527664 67.943466,161.168732 
	C68.000809,160.320999 69.724915,159.165298 70.852303,158.909210 
	C72.545296,158.524612 74.390305,158.809128 76.803284,158.809128 
	C76.803284,163.865097 76.803284,168.428864 76.685486,173.418976 
z"/>
<path fill="#F63783" opacity="1.000000" stroke="none" 
	d="
M163.082245,307.334351 
	C167.311951,302.411926 172.203171,299.922394 178.337387,301.687225 
	C184.001633,303.316864 187.937546,306.937500 188.940689,313.037689 
	C189.910522,318.935303 187.218903,324.691895 182.315048,327.524597 
	C177.033401,330.575531 170.369049,330.190948 165.953568,326.580475 
	C161.488785,322.929688 159.555740,316.417114 161.344788,310.773956 
	C161.691299,309.680969 162.347977,308.686279 163.082245,307.334351 
M174.543030,310.132721 
	C173.375748,310.702881 171.310822,311.143524 171.206467,311.867004 
	C170.869492,314.203278 170.463028,317.116394 171.548203,318.931366 
	C173.116959,321.555145 176.545853,321.659943 178.199463,319.052002 
	C179.305389,317.307861 178.896896,314.377228 178.555557,312.067780 
	C178.440247,311.287537 176.450378,310.784363 174.543030,310.132721 
z"/>
<path fill="#FCE187" opacity="1.000000" stroke="none" 
	d="
M174.930115,310.143616 
	C176.450378,310.784363 178.440247,311.287537 178.555557,312.067780 
	C178.896896,314.377228 179.305389,317.307861 178.199463,319.052002 
	C176.545853,321.659943 173.116959,321.555145 171.548203,318.931366 
	C170.463028,317.116394 170.869492,314.203278 171.206467,311.867004 
	C171.310822,311.143524 173.375748,310.702881 174.930115,310.143616 
z"/>
</svg>